<?xml version="1.0" encoding="UTF-8" standalone="no"?> <svg width="24" height="24" viewBox="0 0 24 24" fill="none" xmlns="http://www.w3.org/2000/svg">
<path fill-rule="evenodd" clip-rule="evenodd" d="M11.9174 4.45818C11.9941 3.07905 13.1347 2 14.516 2C15.8759 2 17.0066 3.04702 17.1109 4.40294L17.8722 14.3004C17.9026 14.6952 18.2317 15 18.6277 15C18.9753 15 19.2784 14.7634 19.3627 14.4261L19.6511 13.2724C19.985 11.9369 21.185 11 22.5616 11H23C23.5523 11 24 11.4477 24 12C24 12.5523 23.5523 13 23 13H22.5616C22.1027 13 21.7027 13.3123 21.5914 13.7575L21.303 14.9112C20.9961 16.1388 19.8931 17 18.6277 17C17.1867 17 15.9886 15.8906 15.8781 14.4538L15.1168 4.55633C15.0926 4.24241 14.8308 4 14.516 4C14.1962 4 13.9321 4.24982 13.9144 4.56912L13.0828 19.537C13.0061 20.9188 11.8632 22 10.4792 22C9.12303 22 7.99324 20.9604 7.88061 19.6089L7.14316 10.7595C7.10738 10.3302 6.74852 10 6.31775 10C5.96123 10 5.64472 10.2281 5.53198 10.5664L5.40453 10.9487C4.99619 12.1737 3.84977 13 2.55848 13H1C0.447715 13 0 12.5523 0 12C0 11.4477 0.447715 11 1 11H2.55848C2.98891 11 3.37105 10.7246 3.50716 10.3162L3.63461 9.9339C4.01958 8.77899 5.10037 8 6.31775 8C7.7887 8 9.01409 9.12753 9.13625 10.5934L9.8737 19.4428C9.89995 19.7578 10.1632 20 10.4792 20C10.8017 20 11.068 19.7481 11.0859 19.4261L11.9174 4.45818Z" fill="#293644"/>
</svg>
